<svg xmlns="http://www.w3.org/2000/svg" xmlns:xlink="http://www.w3.org/1999/xlink" width="500" zoomAndPan="magnify" viewBox="0 0 375 374.999991" height="500" preserveAspectRatio="xMidYMid meet" version="1.0"><path fill="#404f65" d="M 196.25 12.5 C 196.664062 13.117188 196.664062 13.117188 197.082031 14.167969 C 197.140625 15.328125 197.160156 16.445312 197.136719 17.605469 L 197.125 18.546875 C 197.113281 19.308594 197.097656 20.070312 197.082031 20.832031 L 197.917969 20.832031 C 198.4375 24.199219 198.855469 27.539062 199.0625 30.941406 C 199.339844 34.003906 200.523438 37.019531 201.40625 39.957031 C 201.625 40.695312 201.84375 41.4375 202.058594 42.175781 C 205.117188 52.101562 211.390625 60.777344 218.332031 68.332031 C 219.054688 69.144531 219.75 69.976562 220.417969 70.832031 L 220.417969 71.667969 L 221.25 71.667969 C 221.808594 72.21875 221.808594 72.21875 222.472656 73.019531 C 223.417969 74.140625 224.378906 75.234375 225.378906 76.304688 L 226.007812 76.980469 C 226.425781 77.429688 226.847656 77.875 227.269531 78.316406 C 227.777344 78.863281 228.265625 79.429688 228.75 80 L 228.75 80.832031 L 229.582031 80.832031 L 229.582031 81.667969 L 230.417969 81.667969 L 230.417969 82.5 L 231.25 82.5 C 231.835938 83.082031 231.835938 83.082031 232.527344 83.90625 C 234.035156 85.691406 235.609375 87.410156 237.199219 89.125 L 237.917969 90 L 237.917969 90.832031 L 238.75 90.832031 L 238.75 91.667969 L 239.582031 91.667969 L 239.582031 92.5 L 240.417969 92.5 C 241.011719 93.175781 241.585938 93.871094 242.136719 94.582031 L 243.050781 95.753906 L 243.75 96.667969 L 244.46875 96.460938 C 245.425781 96.246094 246.253906 96.195312 247.230469 96.195312 L 248.378906 96.191406 C 250.339844 96.203125 252.296875 96.214844 254.253906 96.234375 C 255.746094 96.246094 257.234375 96.253906 258.726562 96.257812 C 261.019531 96.265625 263.3125 96.289062 265.609375 96.316406 C 266.539062 96.324219 267.46875 96.328125 268.402344 96.332031 C 269.726562 96.335938 271.050781 96.351562 272.378906 96.371094 L 273.59375 96.367188 C 274.660156 96.390625 275.625 96.433594 276.667969 96.667969 C 277.949219 97.699219 277.949219 97.699219 278.75 98.75 L 279.167969 99.167969 C 279.675781 102.15625 280.042969 105.441406 279.375 108.425781 C 278.957031 109.542969 278.441406 110.320312 277.546875 111.109375 C 275.53125 111.972656 273.570312 111.820312 271.398438 111.789062 L 269.976562 111.785156 C 268.484375 111.773438 266.988281 111.761719 265.496094 111.746094 C 264.480469 111.738281 263.464844 111.734375 262.453125 111.726562 C 259.96875 111.714844 257.484375 111.691406 255 111.667969 L 255.761719 113.097656 L 256.769531 115 C 256.9375 115.308594 257.101562 115.621094 257.269531 115.9375 C 264.519531 129.609375 267.433594 143.398438 267.125 158.839844 C 266.988281 162.542969 266.480469 166.179688 265.652344 169.789062 C 265.394531 170.953125 265.144531 172.125 264.90625 173.292969 C 263.527344 179.851562 261.757812 186.167969 259.582031 192.5 L 259.226562 193.558594 C 258.234375 196.472656 257.191406 199.347656 256.003906 202.1875 L 255.433594 203.546875 L 255 204.582031 L 255.980469 204.582031 C 263.84375 204.574219 271.703125 204.566406 279.566406 204.5625 C 283.371094 204.558594 287.171875 204.554688 290.972656 204.550781 C 294.285156 204.546875 297.597656 204.546875 300.910156 204.542969 C 302.667969 204.542969 304.421875 204.542969 306.175781 204.539062 C 307.828125 204.535156 309.476562 204.535156 311.128906 204.535156 C 311.734375 204.535156 312.34375 204.535156 312.949219 204.535156 C 313.777344 204.53125 314.601562 204.53125 315.429688 204.535156 L 316.832031 204.53125 C 317.917969 204.582031 317.917969 204.582031 318.75 205 L 318.75 205.832031 L 319.53125 206.199219 C 320.417969 206.667969 320.417969 206.667969 321.25 207.5 C 321.460938 209.132812 321.421875 210.777344 321.433594 212.421875 L 321.472656 213.804688 L 321.484375 215.136719 L 321.5 216.359375 C 321.25 217.5 321.25 217.5 320.519531 218.597656 C 319.941406 219.140625 319.941406 219.140625 319.167969 219.582031 C 317.421875 219.902344 315.691406 219.867188 313.921875 219.851562 L 312.304688 219.863281 C 310.839844 219.871094 309.375 219.871094 307.910156 219.863281 C 306.359375 219.863281 304.8125 219.871094 303.261719 219.878906 C 300.316406 219.894531 297.367188 219.894531 294.417969 219.894531 C 290.148438 219.894531 285.878906 219.910156 281.609375 219.921875 L 279.683594 219.929688 L 278.726562 219.933594 C 276.902344 219.9375 275.082031 219.941406 273.257812 219.941406 C 264.664062 219.945312 256.085938 220.128906 247.5 220.417969 L 247.082031 221.25 L 246.25 221.25 L 246.25 222.917969 L 245.417969 222.917969 L 245.253906 223.640625 C 244.996094 224.59375 244.667969 225.433594 244.246094 226.328125 L 243.847656 227.207031 L 243.332031 227.917969 C 242.160156 228.390625 241.164062 228.359375 239.921875 228.203125 L 238.332031 227.917969 L 237.917969 227.082031 L 238.75 227.082031 L 238.890625 226.207031 C 239.203125 224.847656 239.683594 223.652344 240.234375 222.371094 L 240.808594 221.019531 L 241.25 220 L 240.527344 220.21875 C 239.515625 220.429688 238.808594 220.378906 237.789062 220.238281 C 234.910156 219.910156 232.035156 219.941406 229.140625 219.945312 L 227.339844 219.941406 C 226.085938 219.941406 224.835938 219.945312 223.582031 219.945312 C 221.988281 219.949219 220.394531 219.945312 218.800781 219.945312 C 217.5625 219.941406 216.324219 219.941406 215.085938 219.945312 C 214.496094 219.945312 213.910156 219.945312 213.324219 219.941406 C 210.390625 219.9375 207.507812 219.96875 204.597656 220.332031 C 203.308594 220.460938 202.066406 220.359375 200.78125 220.234375 L 199.371094 220.105469 L 198.332031 220 C 197.488281 214.921875 197.664062 209.726562 197.5 204.582031 L 248.332031 204.167969 C 251.269531 196.203125 251.269531 196.203125 253.75 188.125 L 254.109375 186.855469 C 254.78125 184.421875 255.175781 182.097656 255.417969 179.582031 L 255.832031 178.75 C 255.917969 178.058594 255.984375 177.363281 256.042969 176.667969 C 256.203125 174.675781 256.203125 174.675781 256.667969 173.75 C 258.070312 163.117188 257.570312 151.480469 254.167969 141.25 L 253.75 140.832031 C 253.734375 140 253.730469 139.167969 253.75 138.332031 L 252.917969 138.332031 C 252.367188 136.824219 252.082031 135.792969 252.082031 134.167969 L 251.25 134.167969 C 250.703125 132.660156 250.417969 131.625 250.417969 130 L 249.582031 130 C 249.164062 129.183594 248.75 128.367188 248.332031 127.550781 L 247.628906 126.175781 C 247.082031 125 247.082031 125 247.082031 124.167969 L 246.25 124.167969 L 245.859375 123.019531 C 244.902344 120.785156 243.371094 118.863281 241.816406 117.007812 C 241.25 116.25 241.25 116.25 240.742188 115.214844 C 239.929688 113.8125 239.246094 113.027344 237.917969 112.082031 C 234.910156 111.289062 231.644531 111.601562 228.566406 111.675781 C 227.648438 111.683594 226.726562 111.691406 225.808594 111.695312 C 223.394531 111.710938 220.980469 111.75 218.566406 111.796875 C 216.097656 111.839844 213.632812 111.859375 211.167969 111.878906 C 206.332031 111.925781 201.5 111.996094 196.667969 112.082031 L 196.667969 112.96875 C 196.6875 132.40625 196.703125 151.847656 196.710938 171.285156 L 196.714844 172.542969 C 196.71875 179.257812 196.722656 185.96875 196.730469 192.683594 C 196.738281 199.578125 196.742188 206.472656 196.746094 213.371094 C 196.746094 217.621094 196.75 221.871094 196.757812 226.121094 C 196.761719 229.039062 196.761719 231.960938 196.761719 234.878906 C 196.761719 236.558594 196.761719 238.242188 196.765625 239.921875 C 196.820312 260.898438 196.820312 260.898438 191.96875 270.054688 C 189.722656 273.789062 186.898438 277.398438 183.75 280.417969 L 182.5 280.832031 L 182.082031 282.082031 L 181.25 282.082031 L 181.25 282.917969 L 180.417969 282.917969 L 180.417969 283.75 L 179.167969 283.75 L 178.332031 285.417969 L 177.082031 285.417969 L 176.667969 286.667969 C 176.054688 287.183594 176.054688 287.183594 175.265625 287.6875 L 174.386719 288.257812 L 173.4375 288.855469 L 172.460938 289.472656 C 162.8125 295.53125 152.5 299.027344 141.074219 299.636719 C 133.457031 299.828125 127.070312 297.671875 120.417969 294.167969 L 120.417969 293.332031 L 119.503906 293.046875 C 117.378906 292.054688 115.949219 290.203125 114.582031 288.332031 L 114.582031 287.5 L 113.75 287.5 C 111.269531 282.605469 110.148438 277.996094 110.417969 272.5 L 109.6875 272.703125 C 108.78125 272.910156 108.007812 272.96875 107.082031 272.96875 L 106.089844 272.96875 L 105.011719 272.964844 L 103.867188 272.964844 C 102.621094 272.964844 101.371094 272.960938 100.121094 272.953125 L 98.828125 272.949219 C 96.570312 272.9375 94.308594 272.925781 92.050781 272.90625 C 90.183594 272.894531 88.3125 272.890625 86.445312 272.890625 C 84.1875 272.890625 81.929688 272.878906 79.671875 272.859375 C 78.8125 272.851562 77.953125 272.851562 77.09375 272.855469 C 75.890625 272.855469 74.6875 272.847656 73.484375 272.828125 L 72.414062 272.84375 C 71.410156 272.820312 70.554688 272.757812 69.582031 272.5 C 68.460938 271.796875 67.539062 270.996094 66.667969 270 C 65.890625 268.449219 66.136719 266.601562 66.121094 264.894531 L 66.082031 263.707031 C 66.066406 261.804688 66.125 260.65625 67.011719 258.9375 C 67.917969 257.917969 67.917969 257.917969 69.167969 257.082031 C 70.050781 256.972656 70.050781 256.972656 71.089844 256.96875 L 72.285156 256.953125 L 73.59375 256.949219 L 74.972656 256.9375 C 76.480469 256.925781 77.988281 256.917969 79.496094 256.910156 C 80.542969 256.902344 81.585938 256.894531 82.628906 256.886719 C 85.101562 256.867188 87.570312 256.851562 90.042969 256.835938 C 93.128906 256.820312 96.21875 256.796875 99.304688 256.773438 C 104.816406 256.734375 110.324219 256.699219 115.832031 256.667969 L 116.25 255.417969 L 117.082031 255.417969 L 117.390625 254.71875 C 119.761719 250.339844 123.996094 245.976562 127.917969 242.917969 L 128.75 242.917969 L 128.75 242.082031 L 129.582031 242.082031 L 129.582031 241.25 L 132.082031 240.417969 L 132.082031 239.582031 L 132.917969 239.582031 L 132.917969 238.75 C 133.453125 238.46875 133.992188 238.191406 134.53125 237.917969 L 135.441406 237.449219 C 136.25 237.082031 136.25 237.082031 137.082031 237.082031 L 137.082031 236.25 C 137.621094 235.96875 138.160156 235.691406 138.699219 235.417969 L 139.605469 234.949219 C 140.417969 234.582031 140.417969 234.582031 141.25 234.582031 L 141.25 233.75 L 142.917969 233.75 L 142.917969 232.917969 L 144 232.503906 C 147.003906 231.367188 147.003906 231.367188 149.972656 230.128906 C 157.632812 226.847656 166.628906 227.0625 174.796875 227.71875 C 179.539062 228.363281 184.503906 229.96875 188.332031 232.917969 L 188.332031 233.75 L 189.167969 233.75 L 189.152344 232.984375 C 188.808594 215.914062 188.710938 198.847656 188.710938 181.777344 L 188.710938 180.371094 C 188.710938 174.738281 188.714844 169.105469 188.71875 163.472656 C 188.722656 157.304688 188.726562 151.132812 188.730469 144.960938 L 188.730469 143.417969 L 188.734375 135.644531 L 188.746094 121.988281 L 188.746094 115.386719 C 188.746094 114.65625 188.75 113.929688 188.75 113.199219 L 188.75 111.667969 L 187.582031 111.671875 C 161.972656 111.753906 136.367188 111.816406 110.757812 111.851562 L 109.105469 111.851562 C 100.253906 111.867188 91.402344 111.894531 82.554688 111.921875 C 73.476562 111.953125 64.398438 111.972656 55.316406 111.980469 C 49.714844 111.984375 44.109375 112 38.507812 112.027344 C 34.667969 112.042969 30.828125 112.050781 26.984375 112.046875 C 24.769531 112.042969 22.550781 112.046875 20.335938 112.0625 C 18.304688 112.082031 16.277344 112.082031 14.246094 112.070312 C 13.511719 112.066406 12.777344 112.074219 12.042969 112.082031 C 9.925781 112.109375 7.910156 112.097656 5.832031 111.667969 C 4.46875 110.753906 3.648438 109.796875 2.917969 108.332031 C 2.585938 107.152344 2.585938 107.152344 2.632812 106.09375 L 2.660156 104.929688 L 2.734375 103.75 L 2.773438 102.53125 C 2.808594 101.546875 2.855469 100.566406 2.917969 99.582031 L 3.75 99.582031 L 4.089844 98.828125 C 4.585938 97.910156 5.035156 97.335938 5.832031 96.667969 C 7.316406 96.171875 8.492188 96.199219 10.058594 96.199219 L 10.988281 96.195312 C 12.023438 96.195312 13.058594 96.195312 14.09375 96.195312 L 16.332031 96.195312 C 18.390625 96.195312 20.445312 96.195312 22.503906 96.195312 C 24.722656 96.195312 26.9375 96.195312 29.152344 96.195312 C 33.496094 96.191406 37.839844 96.191406 42.183594 96.195312 C 45.714844 96.195312 49.242188 96.195312 52.773438 96.195312 L 57.347656 96.195312 C 66.90625 96.191406 76.46875 96.195312 86.027344 96.195312 C 94.238281 96.199219 102.449219 96.199219 110.660156 96.195312 C 121.203125 96.195312 131.742188 96.195312 142.285156 96.195312 L 143.796875 96.195312 C 147.324219 96.195312 150.851562 96.195312 154.378906 96.191406 C 158.671875 96.191406 162.96875 96.191406 167.261719 96.195312 C 169.457031 96.195312 171.648438 96.195312 173.84375 96.195312 C 175.847656 96.195312 177.851562 96.195312 179.855469 96.195312 C 180.585938 96.195312 181.3125 96.195312 182.042969 96.195312 C 183.027344 96.195312 184.007812 96.195312 184.992188 96.199219 L 186.65625 96.199219 C 187.917969 96.25 187.917969 96.25 188.75 96.667969 L 188.75 95.367188 C 188.738281 84.941406 188.734375 74.515625 188.726562 64.09375 C 188.726562 59.050781 188.722656 54.007812 188.71875 48.96875 C 188.714844 44.578125 188.710938 40.183594 188.710938 35.792969 C 188.710938 33.464844 188.710938 31.136719 188.707031 28.808594 C 188.703125 26.621094 188.703125 24.433594 188.703125 22.246094 C 188.703125 21.441406 188.703125 20.636719 188.699219 19.832031 C 188.699219 18.734375 188.699219 17.640625 188.699219 16.546875 L 188.695312 15.566406 C 188.699219 14.824219 188.722656 14.078125 188.75 13.332031 L 189.167969 12.917969 C 191.515625 12.550781 193.875 12.449219 196.25 12.5 M 197.082031 90 C 196.609375 91.425781 196.625 92.535156 196.640625 94.035156 L 196.652344 95.527344 L 196.667969 96.667969 C 198.25 97.175781 199.820312 97.144531 201.464844 97.140625 L 202.382812 97.140625 C 203.023438 97.140625 203.664062 97.140625 204.304688 97.136719 C 205.277344 97.136719 206.246094 97.136719 207.214844 97.140625 C 210.253906 97.140625 213.238281 97.101562 216.25 96.667969 L 216.25 95.417969 C 209.980469 92.636719 204.039062 90.257812 197.082031 90 M 93.953125 305.941406 C 95.15625 305.824219 96.320312 305.8125 97.527344 305.839844 L 98.914062 305.828125 C 100.453125 305.816406 101.992188 305.832031 103.53125 305.847656 C 104.644531 305.84375 105.753906 305.839844 106.867188 305.835938 C 109.289062 305.828125 111.710938 305.835938 114.128906 305.847656 C 117.730469 305.867188 121.328125 305.867188 124.925781 305.863281 C 130.984375 305.855469 137.035156 305.867188 143.09375 305.886719 C 149.464844 305.90625 155.835938 305.914062 162.210938 305.917969 L 167.890625 305.921875 C 181.300781 305.925781 194.710938 305.945312 208.121094 305.976562 C 221.148438 306.003906 234.175781 306.023438 247.203125 306.035156 L 248.421875 306.035156 L 259.3125 306.042969 C 274.332031 306.054688 289.347656 306.070312 304.367188 306.09375 C 314.046875 306.105469 323.730469 306.121094 333.410156 306.140625 L 334.398438 306.144531 C 336.667969 306.148438 338.933594 306.152344 341.203125 306.15625 C 343.90625 306.160156 346.609375 306.164062 349.308594 306.171875 C 350.671875 306.175781 352.035156 306.175781 353.398438 306.179688 C 354.859375 306.179688 356.324219 306.183594 357.785156 306.191406 L 359.085938 306.1875 L 360.257812 306.195312 L 361.273438 306.195312 C 362.082031 306.25 362.082031 306.25 362.917969 306.667969 L 362.917969 307.5 L 363.75 307.5 L 363.75 308.332031 L 364.582031 308.332031 L 364.582031 309.167969 L 365.417969 309.167969 C 365.464844 310.789062 365.496094 312.414062 365.519531 314.035156 L 365.5625 315.429688 C 365.578125 316.695312 365.570312 317.910156 365.417969 319.167969 C 364.628906 320.503906 364.628906 320.503906 363.75 321.25 C 362.765625 321.742188 362.179688 321.71875 361.078125 321.722656 L 359.898438 321.726562 L 358.589844 321.726562 L 357.203125 321.730469 C 355.652344 321.730469 354.101562 321.734375 352.550781 321.734375 L 349.203125 321.738281 C 346.445312 321.746094 343.6875 321.75 340.929688 321.75 C 337.628906 321.753906 334.328125 321.757812 331.027344 321.765625 C 322.667969 321.777344 314.308594 321.785156 305.953125 321.792969 L 299.164062 321.800781 C 281.867188 321.816406 264.570312 321.828125 247.277344 321.835938 L 246.054688 321.835938 C 232.941406 321.84375 219.828125 321.859375 206.714844 321.878906 C 191.339844 321.902344 175.964844 321.917969 160.585938 321.921875 L 159.453125 321.921875 C 153.421875 321.921875 147.390625 321.933594 141.359375 321.945312 C 135.296875 321.960938 129.238281 321.964844 123.179688 321.957031 C 119.578125 321.957031 115.976562 321.960938 112.371094 321.972656 C 109.96875 321.984375 107.5625 321.984375 105.160156 321.972656 C 103.789062 321.96875 102.417969 321.972656 101.046875 321.980469 C 99.570312 321.992188 98.09375 321.984375 96.617188 321.976562 L 95.324219 321.996094 C 94.1875 321.976562 93.1875 321.929688 92.082031 321.667969 C 90.960938 320.929688 90.414062 320.261719 89.582031 319.167969 C 89.109375 317.601562 89.195312 316.058594 89.21875 314.425781 L 89.167969 313.160156 L 89.171875 311.917969 L 89.164062 310.800781 C 89.734375 309.140625 90.652344 308.1875 91.90625 306.976562 C 92.917969 306.25 92.917969 306.25 93.953125 305.941406 " fill-opacity="1" fill-rule="nonzero"/><path fill="#86b04e" d="M 10.058594 96.199219 L 10.984375 96.195312 C 12.019531 96.195312 13.054688 96.195312 14.089844 96.195312 L 16.328125 96.195312 C 18.386719 96.195312 20.441406 96.195312 22.5 96.195312 C 24.714844 96.195312 26.929688 96.195312 29.144531 96.195312 C 33.488281 96.191406 37.828125 96.191406 42.171875 96.195312 C 45.699219 96.195312 49.226562 96.195312 52.757812 96.195312 L 57.332031 96.195312 C 66.890625 96.191406 76.445312 96.195312 86.003906 96.195312 C 94.214844 96.199219 102.421875 96.199219 110.628906 96.195312 C 121.171875 96.195312 131.707031 96.195312 142.242188 96.195312 L 143.757812 96.195312 C 147.28125 96.195312 150.808594 96.195312 154.332031 96.191406 C 158.628906 96.191406 162.921875 96.191406 167.214844 96.195312 C 169.40625 96.195312 171.601562 96.195312 173.792969 96.195312 C 175.796875 96.195312 177.800781 96.195312 179.804688 96.195312 C 180.535156 96.195312 181.261719 96.195312 181.988281 96.195312 C 182.972656 96.195312 183.957031 96.195312 184.941406 96.199219 L 186.601562 96.199219 C 187.917969 96.25 187.917969 96.25 189.167969 96.667969 L 189.167969 111.667969 C 163.109375 111.753906 137.054688 111.816406 111 111.851562 L 109.339844 111.851562 C 100.46875 111.867188 91.597656 111.894531 82.726562 111.921875 C 73.628906 111.953125 64.53125 111.972656 55.429688 111.980469 C 49.8125 111.984375 44.195312 112 38.582031 112.027344 C 34.730469 112.042969 30.882812 112.050781 27.035156 112.046875 C 24.8125 112.042969 22.589844 112.046875 20.367188 112.0625 C 18.332031 112.082031 16.300781 112.082031 14.265625 112.070312 C 13.527344 112.066406 12.792969 112.074219 12.054688 112.082031 C 9.933594 112.109375 7.914062 112.101562 5.832031 111.667969 C 4.46875 110.753906 3.644531 109.800781 2.917969 108.332031 C 2.585938 107.152344 2.585938 107.152344 2.632812 106.09375 L 2.660156 104.929688 L 2.734375 103.75 L 2.773438 102.53125 C 2.808594 101.546875 2.855469 100.566406 2.917969 99.582031 L 3.75 99.582031 L 4.089844 98.828125 C 4.585938 97.910156 5.035156 97.335938 5.832031 96.667969 C 7.316406 96.171875 8.492188 96.199219 10.058594 96.199219 " fill-opacity="1" fill-rule="nonzero"/><path fill="#2b9075" d="M 25.417969 150.417969 C 48.5 150.410156 71.578125 150.402344 94.644531 150.394531 L 96.113281 150.394531 C 103.96875 150.390625 111.828125 150.386719 119.683594 150.382812 C 127.742188 150.378906 135.796875 150.378906 143.855469 150.378906 C 148.832031 150.375 153.804688 150.375 158.78125 150.371094 C 162.1875 150.371094 165.597656 150.367188 169.003906 150.371094 C 170.972656 150.371094 172.941406 150.367188 174.910156 150.367188 C 176.707031 150.363281 178.507812 150.363281 180.308594 150.367188 C 180.960938 150.367188 181.613281 150.367188 182.269531 150.363281 C 183.152344 150.363281 184.035156 150.363281 184.917969 150.367188 L 186.410156 150.363281 L 187.5 150.417969 L 187.917969 150.832031 C 187.953125 151.945312 187.964844 153.042969 187.957031 154.15625 L 187.957031 155.164062 C 187.953125 156.226562 187.949219 157.292969 187.941406 158.359375 C 187.941406 159.082031 187.9375 159.800781 187.9375 160.523438 C 187.933594 162.292969 187.925781 164.0625 187.917969 165.832031 C 164.753906 165.824219 141.589844 165.804688 118.425781 165.769531 L 116.949219 165.765625 C 109.0625 165.757812 101.179688 165.75 93.292969 165.75 C 85.203125 165.75 77.113281 165.742188 69.027344 165.722656 C 64.03125 165.714844 59.039062 165.710938 54.046875 165.714844 C 50.625 165.71875 47.203125 165.710938 43.78125 165.699219 C 41.804688 165.695312 39.828125 165.691406 37.855469 165.695312 C 36.046875 165.703125 34.238281 165.699219 32.429688 165.6875 C 31.777344 165.683594 31.121094 165.683594 30.464844 165.691406 C 29.578125 165.695312 28.691406 165.691406 27.800781 165.679688 L 26.304688 165.679688 C 25 165.417969 25 165.417969 23.800781 164.433594 C 22.917969 163.332031 22.917969 163.332031 22.648438 162.167969 L 22.640625 160.910156 L 22.632812 159.527344 L 22.65625 158.097656 L 22.632812 156.664062 C 22.640625 155.375 22.675781 154.183594 22.917969 152.917969 C 23.949219 151.8125 23.949219 151.8125 25 151.25 Z M 25.417969 150.417969 " fill-opacity="1" fill-rule="nonzero"/><path fill="#41a1bb" d="M 208.175781 256.625 L 209.871094 256.625 C 211.417969 256.628906 212.960938 256.628906 214.507812 256.636719 C 216.175781 256.640625 217.847656 256.640625 219.515625 256.644531 C 223.160156 256.648438 226.804688 256.65625 230.449219 256.667969 C 232.726562 256.671875 235.003906 256.679688 237.277344 256.683594 C 243.582031 256.699219 249.886719 256.710938 256.191406 256.730469 L 257.414062 256.734375 L 261.089844 256.746094 L 262.320312 256.746094 C 268.90625 256.765625 275.492188 256.78125 282.078125 256.789062 C 288.84375 256.800781 295.609375 256.816406 302.371094 256.835938 C 306.167969 256.847656 309.964844 256.859375 313.765625 256.859375 C 316.992188 256.863281 320.222656 256.871094 323.453125 256.886719 C 325.101562 256.894531 326.75 256.894531 328.398438 256.898438 C 329.90625 256.894531 331.417969 256.902344 332.925781 256.910156 C 333.730469 256.914062 334.535156 256.910156 335.339844 256.910156 L 336.789062 256.921875 L 338.035156 256.925781 C 339.382812 257.113281 340.15625 257.53125 341.25 258.332031 C 342.082031 259.582031 342.082031 259.582031 342.210938 260.648438 C 342.242188 262.011719 342.257812 263.375 342.265625 264.738281 C 342.277344 265.214844 342.292969 265.6875 342.308594 266.175781 L 342.316406 267.5625 L 342.332031 268.828125 C 342.082031 270 342.082031 270 341.351562 271.097656 C 340.773438 271.644531 340.773438 271.644531 340 272.082031 C 338.265625 272.402344 336.542969 272.363281 334.785156 272.347656 L 333.160156 272.355469 C 331.671875 272.363281 330.183594 272.359375 328.699219 272.355469 C 327.09375 272.347656 325.492188 272.355469 323.886719 272.363281 C 321.109375 272.371094 318.328125 272.371094 315.550781 272.367188 C 311.527344 272.363281 307.507812 272.367188 303.484375 272.378906 C 296.957031 272.390625 290.433594 272.394531 283.902344 272.394531 C 277.570312 272.394531 271.234375 272.398438 264.898438 272.40625 L 263.71875 272.40625 C 257.585938 272.414062 251.453125 272.421875 245.320312 272.429688 C 240.582031 272.4375 235.84375 272.441406 231.105469 272.441406 C 228.714844 272.441406 226.324219 272.445312 223.933594 272.445312 C 222.042969 272.445312 220.152344 272.445312 218.261719 272.445312 C 216.847656 272.445312 215.433594 272.445312 214.019531 272.449219 L 212.5 272.445312 L 211.101562 272.449219 L 209.898438 272.449219 C 208.65625 272.503906 207.472656 272.699219 206.25 272.917969 C 205.5 272.949219 204.75 272.960938 204 272.957031 L 202.773438 272.953125 L 201.511719 272.941406 L 200.21875 272.9375 C 199.175781 272.933594 198.128906 272.925781 197.082031 272.917969 L 197.082031 272.082031 L 196.25 272.082031 L 196.25 272.917969 C 195.050781 272.96875 195.050781 272.96875 193.75 272.917969 L 192.917969 272.082031 L 193.480469 271.042969 C 195.800781 266.609375 197.609375 262.066406 198.332031 257.082031 C 201.621094 256.667969 204.863281 256.609375 208.175781 256.625 " fill-opacity="1" fill-rule="nonzero"/><path fill="#2e6e9d" d="M 49.382812 204.480469 L 50.667969 204.480469 L 52.148438 204.476562 L 53.78125 204.484375 C 54.359375 204.484375 54.9375 204.480469 55.511719 204.480469 C 57.101562 204.480469 58.691406 204.484375 60.277344 204.488281 C 61.992188 204.488281 63.703125 204.488281 65.414062 204.488281 C 68.382812 204.488281 71.347656 204.492188 74.316406 204.496094 C 78.605469 204.503906 82.894531 204.503906 87.183594 204.503906 C 94.144531 204.507812 101.105469 204.511719 108.0625 204.519531 C 114.824219 204.527344 121.585938 204.535156 128.347656 204.539062 L 129.609375 204.539062 L 135.882812 204.542969 C 153.226562 204.550781 170.570312 204.5625 187.917969 204.582031 L 187.917969 220 C 168.398438 220.027344 148.882812 219.984375 129.367188 219.910156 L 128.46875 219.90625 C 120.824219 219.875 113.179688 219.84375 105.535156 219.816406 C 101.097656 219.796875 96.660156 219.777344 92.222656 219.761719 L 91.265625 219.757812 L 86.496094 219.738281 C 73.496094 219.6875 60.5 219.636719 47.5 219.582031 L 47.082031 218.332031 L 45.417969 217.5 L 45.417969 207.082031 L 46.25 207.082031 L 46.25 206.25 L 47.082031 206.25 L 47.082031 205.417969 C 48.332031 204.582031 48.332031 204.582031 49.382812 204.480469 " fill-opacity="1" fill-rule="nonzero"/><path fill="#556075" d="M 185.039062 230.828125 C 186.214844 231.453125 187.273438 232.101562 188.332031 232.917969 L 188.332031 233.75 L 189.167969 233.75 C 189.246094 234.355469 189.324219 234.964844 189.402344 235.574219 L 189.53125 236.597656 C 189.582031 237.5 189.582031 237.5 189.167969 238.332031 C 188.316406 238.597656 187.460938 238.757812 186.589844 238.933594 C 186.339844 239.007812 186.089844 239.085938 185.832031 239.167969 L 185.417969 240 C 181.222656 240.050781 177.097656 239.949219 172.917969 239.582031 L 172.917969 238.75 L 162.5 237.917969 L 162.5 238.75 C 160.589844 239.75 158.941406 240.117188 156.796875 240.363281 C 152.121094 240.96875 148.203125 243.074219 144.167969 245.417969 L 143.140625 246.007812 C 141.953125 246.703125 141.953125 246.703125 140.832031 247.5 L 140.832031 248.332031 L 139.582031 248.75 C 139.121094 249.226562 138.664062 249.703125 138.203125 250.179688 C 137.324219 250.996094 136.375 251.65625 135.390625 252.34375 C 130.421875 255.894531 126.136719 259.945312 123.332031 265.417969 L 122.5 265.417969 L 122.082031 267.917969 L 120.832031 268.332031 L 120.46875 269.714844 L 120 271.25 C 119.316406 271.816406 118.621094 272.375 117.917969 272.917969 C 117.550781 274.015625 117.550781 274.015625 117.5 275 L 114.167969 275.417969 L 114.167969 276.667969 L 113.230469 276.613281 C 111.945312 276.59375 111.945312 276.59375 110.417969 277.5 L 110.417969 272.5 L 108.75 272.917969 C 108.195312 272.953125 107.636719 272.96875 107.082031 272.96875 L 106.089844 272.96875 L 105.011719 272.964844 L 103.867188 272.964844 C 102.621094 272.964844 101.371094 272.960938 100.121094 272.953125 L 98.828125 272.949219 C 96.570312 272.9375 94.308594 272.925781 92.050781 272.90625 C 90.183594 272.894531 88.3125 272.890625 86.445312 272.890625 C 84.1875 272.890625 81.929688 272.878906 79.671875 272.859375 C 78.8125 272.851562 77.953125 272.851562 77.09375 272.855469 C 75.890625 272.855469 74.6875 272.847656 73.484375 272.828125 L 72.414062 272.84375 C 71.410156 272.820312 70.554688 272.757812 69.582031 272.5 C 68.460938 271.796875 67.539062 270.996094 66.667969 270 C 65.890625 268.449219 66.136719 266.601562 66.121094 264.894531 L 66.082031 263.707031 C 66.066406 261.804688 66.125 260.65625 67.011719 258.9375 C 67.917969 257.917969 67.917969 257.917969 69.167969 257.082031 C 70.050781 256.972656 70.050781 256.972656 71.089844 256.96875 L 72.285156 256.953125 L 73.59375 256.949219 L 74.972656 256.9375 C 76.480469 256.925781 77.988281 256.917969 79.496094 256.910156 C 80.542969 256.902344 81.585938 256.894531 82.628906 256.886719 C 85.101562 256.867188 87.570312 256.851562 90.042969 256.835938 C 93.128906 256.820312 96.21875 256.796875 99.304688 256.773438 C 104.816406 256.734375 110.324219 256.699219 115.832031 256.667969 L 116.25 255.417969 L 117.082031 255.417969 L 117.390625 254.71875 C 119.761719 250.339844 123.996094 245.976562 127.917969 242.917969 L 128.75 242.917969 L 128.75 242.082031 L 129.582031 242.082031 L 129.582031 241.25 L 132.082031 240.417969 L 132.082031 239.582031 L 132.917969 239.582031 L 132.917969 238.75 C 133.453125 238.46875 133.992188 238.191406 134.53125 237.917969 L 135.441406 237.449219 C 136.25 237.082031 136.25 237.082031 137.082031 237.082031 L 137.082031 236.25 C 137.621094 235.96875 138.160156 235.691406 138.699219 235.417969 L 139.605469 234.949219 C 140.417969 234.582031 140.417969 234.582031 141.25 234.582031 L 141.25 233.75 L 142.917969 233.75 L 142.917969 232.917969 L 144 232.503906 C 147.003906 231.367188 147.003906 231.367188 149.972656 230.128906 C 160.273438 225.714844 174.964844 226.046875 185.039062 230.828125 " fill-opacity="1" fill-rule="nonzero"/><path fill="#2e6e9d" d="M 254.582031 204.582031 C 262.828125 204.574219 271.070312 204.566406 279.3125 204.5625 C 283.140625 204.558594 286.96875 204.554688 290.796875 204.550781 C 294.128906 204.546875 297.464844 204.546875 300.800781 204.542969 C 302.566406 204.542969 304.332031 204.542969 306.097656 204.539062 C 307.761719 204.535156 309.421875 204.535156 311.082031 204.535156 C 311.695312 204.535156 312.304688 204.535156 312.917969 204.535156 C 313.75 204.53125 314.582031 204.53125 315.410156 204.535156 L 316.824219 204.53125 C 317.917969 204.582031 317.917969 204.582031 318.75 205 L 318.75 205.832031 L 319.53125 206.199219 C 320.417969 206.667969 320.417969 206.667969 321.25 207.5 C 321.460938 209.132812 321.421875 210.777344 321.433594 212.421875 L 321.472656 213.804688 L 321.484375 215.136719 L 321.5 216.359375 C 321.25 217.5 321.25 217.5 320.523438 218.597656 C 319.945312 219.140625 319.945312 219.140625 319.167969 219.582031 C 317.414062 219.902344 315.671875 219.867188 313.894531 219.851562 L 312.269531 219.863281 C 310.796875 219.871094 309.328125 219.871094 307.855469 219.863281 C 306.300781 219.863281 304.746094 219.871094 303.191406 219.878906 C 300.234375 219.894531 297.28125 219.894531 294.324219 219.894531 C 290.035156 219.894531 285.746094 219.910156 281.457031 219.921875 L 278.570312 219.933594 C 276.738281 219.9375 274.90625 219.941406 273.074219 219.941406 C 266.433594 219.945312 259.808594 220.027344 253.171875 220.308594 L 251.632812 220.367188 L 250.277344 220.425781 C 249.167969 220.417969 249.167969 220.417969 247.917969 220 C 248.179688 218.269531 248.761719 216.894531 249.53125 215.324219 L 250.253906 213.835938 L 251.015625 212.292969 C 251.511719 211.28125 252.003906 210.269531 252.5 209.257812 L 253.164062 207.902344 C 253.683594 206.808594 254.140625 205.710938 254.582031 204.582031 " fill-opacity="1" fill-rule="nonzero"/><path fill="#2b9075" d="M 197.917969 150.417969 L 255.417969 150.417969 C 256.25 164.167969 256.25 164.167969 255.832031 165.832031 L 197.917969 166.25 Z M 197.917969 150.417969 " fill-opacity="1" fill-rule="nonzero"/><path fill="#2e6e9d" d="M 197.5 204.582031 L 247.917969 204.582031 L 248.332031 205.417969 C 248.082031 206.222656 248.082031 206.222656 247.65625 207.207031 L 247.183594 208.304688 L 246.667969 209.480469 L 246.144531 210.667969 C 245.628906 211.835938 245.105469 213 244.582031 214.167969 L 244.152344 215.144531 C 243.785156 215.96875 243.40625 216.785156 243.019531 217.605469 L 242.375 218.992188 L 241.667969 220 C 240.648438 220.453125 239.875 220.449219 238.773438 220.332031 C 238.300781 220.273438 238.300781 220.273438 237.816406 220.214844 C 234.925781 219.914062 232.042969 219.941406 229.140625 219.945312 L 227.339844 219.941406 C 226.085938 219.941406 224.835938 219.945312 223.582031 219.945312 C 221.988281 219.949219 220.394531 219.945312 218.800781 219.945312 C 217.5625 219.941406 216.324219 219.941406 215.085938 219.945312 C 214.496094 219.945312 213.910156 219.945312 213.324219 219.941406 C 210.390625 219.9375 207.507812 219.96875 204.597656 220.332031 C 203.308594 220.460938 202.066406 220.359375 200.78125 220.234375 L 199.371094 220.105469 L 198.332031 220 C 197.488281 214.921875 197.664062 209.726562 197.5 204.582031 " fill-opacity="1" fill-rule="nonzero"/><path fill="#41a1bb" d="M 115.417969 256.667969 C 115.183594 258.578125 114.660156 260.027344 113.800781 261.746094 C 112.210938 265.085938 111.242188 268.410156 110.832031 272.082031 C 108.878906 273.082031 107.105469 273.03125 104.964844 273.011719 L 103.820312 273.011719 C 102.574219 273.011719 101.328125 273.003906 100.082031 272.996094 L 97.476562 272.980469 C 95.65625 272.96875 93.839844 272.957031 92.019531 272.9375 C 89.691406 272.917969 87.363281 272.914062 85.035156 272.910156 C 83.242188 272.90625 81.449219 272.890625 79.65625 272.875 C 78.796875 272.867188 77.941406 272.867188 77.082031 272.867188 C 75.878906 272.867188 74.679688 272.855469 73.476562 272.835938 L 72.410156 272.847656 C 71.40625 272.820312 70.550781 272.757812 69.582031 272.5 C 68.460938 271.796875 67.539062 270.992188 66.667969 270 C 65.890625 268.449219 66.136719 266.601562 66.121094 264.894531 L 66.082031 263.707031 C 66.066406 261.804688 66.125 260.65625 67.011719 258.9375 C 67.917969 257.917969 67.917969 257.917969 69.167969 257.082031 C 70.027344 256.972656 70.027344 256.972656 71.035156 256.96875 L 72.195312 256.953125 L 73.464844 256.949219 L 74.804688 256.9375 C 76.265625 256.925781 77.730469 256.917969 79.195312 256.910156 C 80.207031 256.902344 81.222656 256.894531 82.238281 256.886719 C 84.910156 256.863281 87.582031 256.847656 90.257812 256.832031 C 92.980469 256.816406 95.703125 256.796875 98.425781 256.773438 C 112.671875 256.667969 112.671875 256.667969 115.417969 256.667969 " fill-opacity="1" fill-rule="nonzero"/><path fill="#789756" d="M 216.25 95.832031 C 218.234375 96.414062 219.9375 97.265625 221.691406 98.332031 L 222.515625 98.832031 C 228.089844 102.277344 233.378906 106.5625 237.5 111.667969 L 237.082031 112.082031 C 235.933594 112.125 234.792969 112.140625 233.640625 112.136719 L 232.546875 112.140625 C 231.34375 112.140625 230.144531 112.140625 228.941406 112.140625 C 228.109375 112.140625 227.277344 112.140625 226.441406 112.140625 C 224.691406 112.140625 222.941406 112.140625 221.191406 112.136719 C 218.949219 112.136719 216.710938 112.136719 214.46875 112.140625 C 212.746094 112.140625 211.023438 112.140625 209.300781 112.140625 C 208.476562 112.140625 207.648438 112.140625 206.824219 112.140625 C 205.664062 112.140625 204.507812 112.140625 203.351562 112.136719 L 202.320312 112.140625 L 201.355469 112.136719 L 200.527344 112.136719 C 199.234375 112.0625 197.949219 111.851562 196.667969 111.667969 L 196.667969 96.667969 L 216.25 96.667969 Z M 216.25 95.832031 " fill-opacity="1" fill-rule="nonzero"/><path fill="#2b9075" d="M 268.75 150.417969 C 269.570312 150.371094 270.390625 150.355469 271.210938 150.347656 L 272.808594 150.335938 L 274.550781 150.332031 L 276.328125 150.324219 C 277.570312 150.320312 278.816406 150.316406 280.058594 150.316406 C 281.652344 150.3125 283.246094 150.304688 284.835938 150.292969 C 286.0625 150.285156 287.285156 150.28125 288.511719 150.28125 C 289.097656 150.28125 289.683594 150.277344 290.269531 150.273438 C 291.09375 150.265625 291.914062 150.265625 292.738281 150.269531 L 294.15625 150.265625 C 295.578125 150.4375 296.347656 150.835938 297.5 151.667969 C 298.242188 152.4375 298.242188 152.4375 298.75 153.332031 C 299.019531 154.980469 298.960938 156.640625 298.957031 158.308594 L 298.996094 159.675781 L 298.996094 161 L 299.007812 162.203125 C 298.75 163.332031 298.75 163.332031 298.019531 164.503906 C 296.667969 165.417969 296.667969 165.417969 295.59375 165.605469 C 294.207031 165.691406 292.832031 165.703125 291.445312 165.695312 L 289.890625 165.714844 C 288.253906 165.726562 286.613281 165.730469 284.972656 165.730469 C 283.34375 165.738281 281.71875 165.75 280.089844 165.761719 C 279.074219 165.769531 278.0625 165.773438 277.050781 165.777344 C 274 165.789062 270.953125 165.945312 267.917969 166.25 C 267.445312 164.835938 267.613281 163.835938 267.796875 162.382812 C 268.078125 159.730469 268.085938 157.050781 268.167969 154.390625 L 268.214844 153.019531 L 268.253906 151.777344 L 268.332031 150.832031 Z M 268.75 150.417969 " fill-opacity="1" fill-rule="nonzero"/><path fill="#86b04e" d="M 244.582031 96.25 C 248.109375 96.21875 251.632812 96.226562 255.15625 96.246094 C 256.363281 96.25 257.566406 96.253906 258.773438 96.257812 C 261.070312 96.265625 263.367188 96.285156 265.664062 96.3125 C 266.59375 96.324219 267.519531 96.328125 268.449219 96.332031 C 269.765625 96.335938 271.085938 96.351562 272.40625 96.371094 L 273.617188 96.367188 C 274.675781 96.390625 275.632812 96.433594 276.667969 96.667969 C 277.949219 97.699219 277.949219 97.699219 278.75 98.75 L 279.167969 99.167969 C 279.675781 102.15625 280.042969 105.441406 279.375 108.425781 C 278.957031 109.542969 278.453125 110.316406 277.546875 111.09375 C 274.382812 112.496094 270.449219 112.144531 267.042969 112.257812 C 266.03125 112.296875 265.019531 112.351562 264.007812 112.414062 C 257.328125 112.839844 257.328125 112.839844 254.582031 112.082031 C 253.476562 111.351562 252.847656 110.539062 252.203125 109.390625 C 251.703125 108.355469 251.269531 107.3125 250.832031 106.25 C 250.105469 105.140625 250.105469 105.140625 249.328125 104.191406 L 248.640625 103.300781 L 247.96875 102.449219 C 246.613281 100.699219 246.613281 100.699219 245.96875 99.871094 C 245.523438 99.308594 245.070312 98.753906 244.605469 98.207031 L 244.167969 97.5 Z M 244.582031 96.25 " fill-opacity="1" fill-rule="nonzero"/><path fill="#6b7285" d="M 185.832031 231.25 L 184.582031 232.082031 C 183.5625 232.011719 183.5625 232.011719 182.394531 231.769531 L 181.152344 231.519531 C 180 231.25 180 231.25 178.542969 230.78125 C 176.519531 230.277344 174.574219 230.347656 172.5 230.417969 L 172.082031 231.667969 L 171.25 231.667969 L 171.25 232.5 L 166.667969 232.5 L 166.25 233.75 C 164.796875 234.058594 163.355469 234.28125 161.878906 234.453125 L 160.570312 234.605469 C 159.671875 234.710938 158.773438 234.816406 157.875 234.917969 C 154.160156 235.363281 151.25 236.175781 147.917969 237.917969 C 146.929688 238.414062 145.9375 238.90625 144.949219 239.402344 L 143.484375 240.132812 C 142.605469 240.574219 141.714844 241.003906 140.820312 241.425781 C 139.40625 242.175781 138.160156 243.078125 136.902344 244.0625 L 136.179688 244.621094 C 134.652344 245.820312 133.25 247.078125 131.914062 248.488281 C 131.207031 249.210938 130.460938 249.847656 129.6875 250.496094 C 126.273438 253.457031 123.355469 256.742188 121.054688 260.636719 C 119.714844 262.796875 119.714844 262.796875 118.75 263.75 C 117.402344 263.953125 117.402344 263.953125 115.9375 263.878906 L 114.460938 263.824219 L 113.332031 263.75 C 113.550781 261.578125 114.074219 259.90625 115.027344 257.941406 L 115.71875 256.5 L 116.25 255.417969 L 117.082031 255.417969 L 117.390625 254.71875 C 119.761719 250.339844 123.996094 245.976562 127.917969 242.917969 L 128.75 242.917969 L 128.75 242.082031 L 129.582031 242.082031 L 129.582031 241.25 L 132.082031 240.417969 L 132.082031 239.582031 L 132.917969 239.582031 L 132.917969 238.75 C 133.453125 238.46875 133.992188 238.191406 134.53125 237.917969 L 135.441406 237.449219 C 136.25 237.082031 136.25 237.082031 137.082031 237.082031 L 137.082031 236.25 C 137.621094 235.96875 138.160156 235.691406 138.699219 235.417969 L 139.605469 234.949219 C 140.417969 234.582031 140.417969 234.582031 141.25 234.582031 L 141.25 233.75 L 142.917969 233.75 L 142.917969 232.917969 L 144 232.503906 C 147.003906 231.367188 147.003906 231.367188 149.972656 230.128906 C 160.625 225.566406 175.53125 226.128906 185.832031 231.25 " fill-opacity="1" fill-rule="nonzero"/><path fill="#52899f" d="M 205.417969 256.667969 C 206.039062 259.183594 205.707031 261.617188 205.46875 264.167969 L 205.351562 265.515625 C 205.171875 267.582031 204.972656 269.625 204.582031 271.667969 L 208.75 271.667969 L 208.75 272.5 C 206.339844 273.023438 203.964844 272.964844 201.511719 272.941406 L 200.21875 272.9375 C 199.175781 272.933594 198.128906 272.925781 197.082031 272.917969 L 197.082031 272.082031 L 196.25 272.082031 L 196.25 272.917969 C 195.050781 272.96875 195.050781 272.96875 193.75 272.917969 L 192.917969 272.082031 L 193.480469 271.042969 C 195.800781 266.609375 197.609375 262.066406 198.332031 257.082031 C 200.707031 256.816406 203.027344 256.613281 205.417969 256.667969 " fill-opacity="1" fill-rule="nonzero"/><path fill="#538977" d="M 268.75 150.417969 C 269.339844 150.414062 269.933594 150.429688 270.523438 150.46875 L 271.601562 150.527344 L 272.734375 150.597656 L 273.871094 150.664062 C 274.804688 150.71875 275.734375 150.773438 276.667969 150.832031 L 277.082031 151.667969 L 276.25 152.082031 C 276.179688 153.78125 276.113281 155.480469 276.050781 157.175781 C 276.027344 157.753906 276.003906 158.332031 275.980469 158.910156 C 275.945312 159.742188 275.914062 160.570312 275.882812 161.402344 L 275.824219 162.914062 C 275.769531 164.1875 275.769531 164.1875 276.25 165.417969 L 267.917969 166.25 C 267.445312 164.835938 267.613281 163.835938 267.796875 162.382812 C 268.078125 159.730469 268.085938 157.050781 268.167969 154.390625 L 268.214844 153.019531 L 268.253906 151.777344 L 268.332031 150.832031 Z M 268.75 150.417969 " fill-opacity="1" fill-rule="nonzero"/><path fill="#5c9c84" d="M 180.832031 150.417969 C 181.9375 150.40625 183.039062 150.398438 184.140625 150.390625 L 185.09375 150.378906 C 185.894531 150.375 186.699219 150.394531 187.5 150.417969 L 187.917969 150.832031 C 187.953125 151.945312 187.964844 153.042969 187.957031 154.15625 L 187.957031 155.164062 C 187.953125 156.226562 187.949219 157.292969 187.941406 158.359375 C 187.941406 159.082031 187.9375 159.800781 187.9375 160.523438 C 187.933594 162.292969 187.925781 164.0625 187.917969 165.832031 L 181.25 165.417969 C 180.753906 155.035156 180.753906 155.035156 180.832031 150.417969 " fill-opacity="1" fill-rule="nonzero"/><path fill="#538977" d="M 197.917969 150.417969 L 203.75 150.417969 L 204.582031 151.25 C 204.714844 152.492188 204.714844 152.492188 204.753906 154.066406 L 204.78125 154.902344 C 204.804688 155.785156 204.824219 156.667969 204.84375 157.550781 L 204.890625 159.347656 C 204.933594 160.816406 204.96875 162.28125 205 163.75 L 201.667969 165.417969 L 201.667969 165.832031 L 197.917969 166.25 Z M 197.917969 150.417969 " fill-opacity="1" fill-rule="nonzero"/><path fill="#5c9c84" d="M 247.5 150.417969 L 255.417969 150.417969 C 255.546875 152.34375 255.671875 154.273438 255.796875 156.199219 C 255.839844 156.855469 255.882812 157.511719 255.925781 158.167969 C 255.988281 159.109375 256.046875 160.054688 256.109375 160.996094 C 256.128906 161.289062 256.148438 161.582031 256.171875 161.882812 C 256.257812 163.34375 256.195312 164.390625 255.832031 165.832031 L 249.582031 165 L 249.445312 163.183594 C 249.089844 158.808594 248.640625 154.664062 247.5 150.417969 " fill-opacity="1" fill-rule="nonzero"/><path fill="#789755" d="M 244.582031 96.25 L 249.582031 96.25 L 250.050781 98.019531 C 250.375 99.058594 250.375 99.058594 250.832031 100 C 252.003906 100.964844 252.003906 100.964844 253.332031 101.667969 C 254.53125 102.734375 254.53125 102.734375 255.417969 103.75 L 255.417969 105 L 256.25 105.417969 L 256.640625 106.875 L 257.082031 108.332031 L 258.332031 108.75 L 258.75 111.667969 L 254.582031 112.082031 L 253.953125 111.054688 C 251.695312 107.433594 249.210938 104.042969 246.589844 100.671875 L 245.96875 99.871094 C 245.523438 99.308594 245.070312 98.753906 244.605469 98.207031 L 244.167969 97.5 Z M 244.582031 96.25 " fill-opacity="1" fill-rule="nonzero"/><path fill="#789756" d="M 187.917969 96.667969 L 189.167969 96.667969 L 189.167969 110.832031 L 187.917969 110.417969 Z M 187.917969 96.667969 " fill-opacity="1" fill-rule="nonzero"/></svg>